<svg width="141" height="24" viewBox="0 0 141 24" fill="none" xmlns="http://www.w3.org/2000/svg">
<g id="Social">
<g id="001-facebook">
<path id="Path" d="M8.77399 4.85599H10.675V1.54507C10.347 1.49995 9.21909 1.39844 7.90548 1.39844C5.16461 1.39844 3.28704 3.12244 3.28704 6.29108V9.20722H0.262451V12.9086H3.28704V22.2219H6.99533V12.9095H9.89758L10.3583 9.20809H6.99446V6.65809C6.99533 5.58828 7.28339 4.85599 8.77399 4.85599Z" fill="white"/>
</g>
<g id="003-twitter">
<path id="Path_2" d="M75.7723 4.66822C74.9138 5.04479 73.9991 5.29439 73.0454 5.41558C74.0265 4.82981 74.7753 3.90931 75.1273 2.7998C74.2126 3.34517 73.2026 3.7304 72.1263 3.94538C71.2577 3.02054 70.0198 2.44775 68.6694 2.44775C66.0492 2.44775 63.9399 4.57443 63.9399 7.18156C63.9399 7.55669 63.9716 7.91739 64.0495 8.26078C60.115 8.06888 56.6335 6.18315 54.2947 3.31055C53.8864 4.01896 53.6469 4.82981 53.6469 5.7027C53.6469 7.34171 54.4909 8.79461 55.7491 9.63576C54.9887 9.62133 54.2428 9.40058 53.6108 9.05287C53.6108 9.0673 53.6108 9.08605 53.6108 9.10481C53.6108 11.4046 55.2513 13.3149 57.4025 13.7549C57.0173 13.8603 56.5974 13.9108 56.1617 13.9108C55.8587 13.9108 55.5528 13.8934 55.2657 13.83C55.8789 15.7042 57.6189 17.082 59.6879 17.1268C58.0777 18.3863 56.0333 19.1452 53.82 19.1452C53.4319 19.1452 53.0597 19.1279 52.6874 19.0803C54.7838 20.4322 57.2683 21.2041 59.9476 21.2041C68.6564 21.2041 73.4176 13.9901 73.4176 7.73704C73.4176 7.52784 73.4104 7.32584 73.4003 7.1253C74.3396 6.45872 75.1288 5.62623 75.7723 4.66822Z" fill="white"/>
</g>
<g id="004-instagram">
<path id="Shape" fill-rule="evenodd" clip-rule="evenodd" d="M124.958 0.349121H133.615C137.599 0.349121 140.829 3.57954 140.829 7.5631V16.2199C140.829 20.2034 137.599 23.4338 133.615 23.4338H124.958C120.975 23.4338 117.744 20.2034 117.744 16.2199V7.5631C117.744 3.57954 120.975 0.349121 124.958 0.349121ZM133.615 21.2697C136.4 21.2697 138.665 19.0045 138.665 16.2199V7.5631C138.665 4.7785 136.4 2.51331 133.615 2.51331H124.958C122.174 2.51331 119.909 4.7785 119.909 7.5631V16.2199C119.909 19.0045 122.174 21.2697 124.958 21.2697H133.615Z" fill="white"/>
<path id="Shape_2" fill-rule="evenodd" clip-rule="evenodd" d="M123.516 11.8913C123.516 8.70416 126.1 6.12012 129.287 6.12012C132.474 6.12012 135.058 8.70416 135.058 11.8913C135.058 15.0784 132.474 17.6625 129.287 17.6625C126.1 17.6625 123.516 15.0784 123.516 11.8913ZM125.68 11.8913C125.68 13.8795 127.299 15.4983 129.287 15.4983C131.275 15.4983 132.894 13.8795 132.894 11.8913C132.894 9.90168 131.275 8.28431 129.287 8.28431C127.299 8.28431 125.68 9.90168 125.68 11.8913Z" fill="white"/>
<ellipse id="Oval" cx="135.491" cy="5.68747" rx="0.769043" ry="0.76901" fill="white"/>
</g>
</g>
</svg>
